<?xml version="1.0" encoding="utf-8"?>
<!-- Generator: Adobe Illustrator 19.1.0, SVG Export Plug-In . SVG Version: 6.00 Build 0)  -->
<svg version="1.0" id="Layer_1" xmlns="http://www.w3.org/2000/svg" xmlns:xlink="http://www.w3.org/1999/xlink" x="0px" y="0px"
	 viewBox="0 0 400 378.6" enable-background="new 0 0 400 378.6" xml:space="preserve">
<linearGradient id="SVGID_1_" gradientUnits="userSpaceOnUse" x1="58.0149" y1="274.5637" x2="285.3333" y2="47.2453">
	<stop  offset="0" style="stop-color:#ED1A62"/>
	<stop  offset="0.8848" style="stop-color:#3799D4"/>
</linearGradient>
<path fill="url(#SVGID_1_)" d="M232.2,0C191.7,160.8,30.1,203.9,0,210.5v6h238.1V0H232.2z"/>
<g>
	<g>
		<g opacity="0.25">
			<path fill="#565659" d="M256.8,378.6V298c37.1,1.8,71.4,14.8,99.5,35.6C330.6,359.6,295.6,376.4,256.8,378.6z"/>
			<path fill="#565659" d="M256.8,153.9l0-80.5c38.9,2.2,73.8,19,99.5,44.9C328.2,139.1,293.9,152.1,256.8,153.9z"/>
			<path fill="#565659" d="M239.2,298v80.5c-38.8-2.2-73.8-19-99.5-44.9C167.8,312.8,202.1,299.8,239.2,298z"/>
			<path fill="#565659" d="M239.2,235.4v45.1c-41.6,1.8-79.9,16.4-111.1,39.9c-18.6-23.7-30.3-53-32.1-85L239.2,235.4z"/>
			<path fill="#565659" d="M256.8,280.5v-45.1H400c-1.8,32-13.5,61.3-32.1,85C336.7,296.9,298.4,282.3,256.8,280.5z"/>
			<path fill="#565659" d="M256.8,216.5l0-45.1c41.6-1.8,79.9-16.4,111.1-39.9c18.6,23.7,30.3,53,32.1,85H256.8z"/>
		</g>
	</g>
</g>
</svg>
