<?xml version="1.0" encoding="utf-8"?>
<!-- Generator: Adobe Illustrator 19.1.0, SVG Export Plug-In . SVG Version: 6.00 Build 0)  -->
<svg version="1.0" id="Layer_1" xmlns="http://www.w3.org/2000/svg" xmlns:xlink="http://www.w3.org/1999/xlink" x="0px" y="0px"
	 viewBox="0 0 432.5 367.3" enable-background="new 0 0 432.5 367.3" xml:space="preserve">
<g>
	<g>
		<g opacity="0.25">
			<path fill="#B6C9CC" d="M255.6,367.3v-80.5c37.1,1.8,71.4,14.8,99.5,35.6C329.4,348.3,294.5,365.1,255.6,367.3z"/>
			<path fill="#B6C9CC" d="M255.6,142.6l0-80.5c38.9,2.2,73.8,19,99.5,44.9C327,127.8,292.8,140.8,255.6,142.6z"/>
			<path fill="#B6C9CC" d="M238.1,286.8v80.5c-38.8-2.2-73.8-19-99.5-44.9C166.7,301.5,200.9,288.5,238.1,286.8z"/>
			<path fill="#B6C9CC" d="M238.1,224.1v45.1c-41.6,1.8-79.9,16.4-111.1,39.9c-18.6-23.7-30.3-53-32.1-85L238.1,224.1z"/>
			<path fill="#B6C9CC" d="M255.6,269.2v-45.1h143.2c-1.8,32-13.5,61.3-32.1,85C335.5,285.6,297.2,271,255.6,269.2z"/>
			<path fill="#B6C9CC" d="M255.6,205.3l0-45.1c41.6-1.8,79.9-16.4,111.1-39.9c18.6,23.7,30.3,53,32.1,85H255.6z"/>
		</g>
	</g>
</g>
<path opacity="0.5" fill="#0E90D0" d="M231.4,0C193,152.4,39.8,193.3,11.3,199.6v5.7H237V0H231.4z"/>
<line fill="none" x1="0" y1="314.9" x2="432.5" y2="314.9"/>
</svg>
