<?xml version="1.0" encoding="utf-8"?>
<!-- Generator: Adobe Illustrator 19.1.0, SVG Export Plug-In . SVG Version: 6.00 Build 0)  -->
<svg version="1.0" id="Layer_1" xmlns="http://www.w3.org/2000/svg" xmlns:xlink="http://www.w3.org/1999/xlink" x="0px" y="0px"
	 viewBox="0 0 21.8 17.7" enable-background="new 0 0 21.8 17.7" xml:space="preserve">
<g>
	<path fill="#0E90D0" d="M21.8,2.1c-0.8,0.4-1.7,0.6-2.6,0.7c0.9-0.6,1.6-1.4,2-2.5c-0.9,0.5-1.8,0.9-2.8,1.1
		c-0.8-0.9-2-1.4-3.3-1.4c-2.5,0-4.5,2-4.5,4.5c0,0.4,0,0.7,0.1,1c-3.7-0.2-7-2-9.2-4.7C1.1,1.5,0.9,2.2,0.9,3.1
		c0,1.6,0.8,2.9,2,3.7c-0.7,0-1.4-0.2-2-0.6c0,0,0,0,0,0.1c0,2.2,1.5,4,3.6,4.4c-0.4,0.1-0.8,0.2-1.2,0.2c-0.3,0-0.6,0-0.8-0.1
		c0.6,1.8,2.2,3.1,4.2,3.1c-1.5,1.2-3.5,1.9-5.5,1.9c-0.4,0-0.7,0-1.1-0.1c2,1.3,4.3,2,6.8,2c8.2,0,12.7-6.8,12.7-12.7
		c0-0.2,0-0.4,0-0.6C20.4,3.8,21.2,3,21.8,2.1z"/>
</g>
</svg>
